<?xml version="1.0" encoding="UTF-8" standalone="no"?>
<!-- Created with Inkscape (http://www.inkscape.org/) -->

<svg
   xmlns:dc="http://purl.org/dc/elements/1.1/"
   xmlns:cc="http://creativecommons.org/ns#"
   xmlns:rdf="http://www.w3.org/1999/02/22-rdf-syntax-ns#"
   xmlns:svg="http://www.w3.org/2000/svg"
   xmlns="http://www.w3.org/2000/svg"
   xmlns:sodipodi="http://sodipodi.sourceforge.net/DTD/sodipodi-0.dtd"
   xmlns:inkscape="http://www.inkscape.org/namespaces/inkscape"
   width="379.95264"
   height="111.36017"
   viewBox="0 0 100.52913 29.464041"
   version="1.1"
   id="svg524"
   inkscape:version="0.92.0 r15299"
   sodipodi:docname="anchor by panasonic.svg">
  <defs
     id="defs518">
    <clipPath
       id="clipPath241"
       clipPathUnits="userSpaceOnUse">
      <path
         inkscape:connector-curvature="0"
         id="path239"
         d="M 0,0 H 1584 V 792 H 0 Z" />
    </clipPath>
  </defs>
  <sodipodi:namedview
     id="base"
     pagecolor="#ffffff"
     bordercolor="#666666"
     borderopacity="1.0"
     inkscape:pageopacity="0.0"
     inkscape:pageshadow="2"
     inkscape:zoom="2.3733131"
     inkscape:cx="188.97633"
     inkscape:cy="54.680095"
     inkscape:document-units="mm"
     inkscape:current-layer="layer1"
     showgrid="false"
     fit-margin-top="0"
     fit-margin-left="0"
     fit-margin-right="0"
     fit-margin-bottom="0"
     units="px"
     inkscape:window-width="1280"
     inkscape:window-height="744"
     inkscape:window-x="-4"
     inkscape:window-y="-4"
     inkscape:window-maximized="1" />
  <metadata
     id="metadata521">
    <rdf:RDF>
      <cc:Work
         rdf:about="">
        <dc:format>image/svg+xml</dc:format>
        <dc:type
           rdf:resource="http://purl.org/dc/dcmitype/StillImage" />
        <dc:title></dc:title>
      </cc:Work>
    </rdf:RDF>
  </metadata>
  <g
     inkscape:label="Layer 1"
     inkscape:groupmode="layer"
     id="layer1"
     transform="translate(37.526768,-121.6874)">
    <g
       id="g756"
       transform="translate(0.26458107,-0.26457894)">
      <path
         d="m -14.061543,122.90483 h 4.1723027 l 5.2475693,12.38003 h -3.9782749 l -1.0152944,-2.64336 h -4.8372887 l -1.074208,2.64336 h -3.686175 z m 2.084564,2.55235 h -0.03704 l -1.618897,4.84293 h 3.139017 z"
         style="fill:#ed1d24;fill-opacity:1;fill-rule:nonzero;stroke:none;stroke-width:0.35277778"
         id="path257"
         inkscape:connector-curvature="0" />
      <path
         d="m -3.7433227,122.90483 h 4.62350545 l 4.19135265,8.40669 h 0.038453 l -0.057503,-8.40669 h 3.3161111 v 12.38003 H 3.8608021 l -4.34728043,-8.46067 h -0.0391583 l 0.11818055,8.46067 H -3.7433227 Z"
         style="fill:#ed1d24;fill-opacity:1;fill-rule:nonzero;stroke:none;stroke-width:0.35277778"
         id="path261"
         inkscape:connector-curvature="0" />
      <path
         d="m 21.592436,135.00074 c -1.033639,0.23001 -2.184047,0.49636 -4.038953,0.49636 -3.627966,0 -7.8196717,-1.66547 -7.8196717,-6.34894 0,-4.31024 3.3136417,-6.45831 7.8002697,-6.45831 1.3843,0 2.731558,0.28646 4.039305,0.64065 l -0.292453,2.67829 c -1.171575,-0.58667 -2.301169,-0.86925 -3.551061,-0.86925 -2.574219,0 -4.251677,1.70216 -4.251677,4.00862 0,2.42922 1.891947,3.90172 4.543777,3.90172 1.190272,0 2.4003,-0.28505 3.394428,-0.63818 l 0.176036,2.58904"
         style="fill:#ed1d24;fill-opacity:1;fill-rule:nonzero;stroke:none;stroke-width:0.35277778"
         id="path265"
         inkscape:connector-curvature="0" />
      <path
         d="m 22.959273,122.90483 h 3.626555 v 4.73428 h 4.2926 v -4.73428 h 3.629378 v 12.38003 h -3.629378 v -5.30401 h -4.2926 v 5.30401 h -3.626555 z"
         style="fill:#ed1d24;fill-opacity:1;fill-rule:nonzero;stroke:none;stroke-width:0.35277778"
         id="path269"
         inkscape:connector-curvature="0" />
      <path
         d="m 42.734478,122.68985 c 4.487333,0 6.828719,2.4324 6.828719,6.40574 0,3.93523 -2.380897,6.4015 -6.828719,6.4015 -4.447822,0 -6.828014,-2.46627 -6.828014,-6.4015 0,-3.97334 2.341034,-6.40574 6.828014,-6.40574 m 0,10.36002 c 2.205567,0 3.082219,-1.91558 3.082219,-3.95428 0,-2.14701 -0.876652,-3.95605 -3.082219,-3.95605 -2.205567,0 -3.081161,1.80904 -3.081161,3.95605 0,2.0387 0.875594,3.95428 3.081161,3.95428"
         style="fill:#ed1d24;fill-opacity:1;fill-rule:nonzero;stroke:none;stroke-width:0.35277778"
         id="path273"
         inkscape:connector-curvature="0" />
      <path
         d="m 50.961714,122.90483 h 6.478058 c 2.418645,0 4.389967,0.99483 4.389967,3.12032 0,1.64959 -0.858661,2.75131 -2.615495,3.12314 v 0.0349 c 1.171575,0.28398 1.249186,1.22237 1.932517,2.73226 l 1.326444,3.36938 h -3.784247 l -0.780697,-2.23485 c -0.742244,-2.12795 -1.210733,-2.661 -2.557286,-2.661 h -0.759883 v 4.89585 h -3.629378 z m 3.629378,5.14279 h 0.956733 c 1.170164,0 2.653242,-0.0339 2.653242,-1.4358 0,-1.15464 -1.268236,-1.3656 -2.653242,-1.3656 h -0.956733 v 2.8014"
         style="fill:#ed1d24;fill-opacity:1;fill-rule:nonzero;stroke:none;stroke-width:0.35277778"
         id="path277"
         inkscape:connector-curvature="0" />
      <path
         inkscape:connector-curvature="0"
         id="path279"
         style="fill:#ed1d24;fill-opacity:1;fill-rule:nonzero;stroke:none;stroke-width:0.35277778"
         d="m -37.526768,135.97137 h 14.029972 v -13.75481 h -14.029972 z" />
      <path
         d="m -30.513617,124.66904 c -0.343253,0 -0.624064,0.27975 -0.624064,0.62477 0,0.34749 0.280811,0.62583 0.624064,0.62583 0.346075,0 0.627239,-0.27834 0.627239,-0.62583 0,-0.34502 -0.281164,-0.62477 -0.627239,-0.62477 m 3.985683,7.63199 c -0.336903,0.42052 -1.492602,1.64783 -3.985683,2.15759 -2.491669,-0.50976 -3.648428,-1.73707 -3.980744,-2.15759 l -0.694973,0.40111 0.155928,-2.41053 2.16535,1.06962 -0.678744,0.39229 c 0.252941,0.27164 0.956733,0.89218 2.160411,0.97614 l 0.276578,-4.57659 h -1.915937 v -1.00718 h 1.97732 l 0.02328,-0.38135 c -0.610658,-0.21484 -1.049161,-0.78705 -1.049161,-1.47073 0,-0.86254 0.698853,-1.56175 1.560689,-1.56175 0.863953,0 1.564922,0.69921 1.564922,1.56175 0,0.68368 -0.44203,1.25589 -1.049866,1.47073 l 0.02364,0.38135 h 1.975202 v 1.00718 h -1.916994 l 0.279753,4.57659 c 1.20403,-0.0811 1.905705,-0.7045 2.15653,-0.97614 l -0.675216,-0.39229 2.165702,-1.06962 0.154164,2.41053 -0.69215,-0.40111"
         style="fill:#ffffff;fill-opacity:1;fill-rule:evenodd;stroke:none;stroke-width:0.35277778"
         id="path283"
         inkscape:connector-curvature="0" />
      <path
         d="m 46.950561,149.02605 c -0.461786,0.48683 -0.984956,0.77611 -1.642533,0.9084 -0.442384,0.0878 -0.829028,0.10831 -1.280231,0.061 -0.597253,-0.061 -1.088672,-0.25435 -1.570566,-0.61101 -0.391937,-0.29492 -0.672748,-0.60995 -0.92075,-1.03716 -0.189089,-0.32844 -0.298803,-0.63253 -0.360187,-1.01001 -0.08572,-0.51893 -0.06421,-0.97613 0.07444,-1.48449 0.312913,-1.15287 1.179688,-1.9752 2.351616,-2.21862 0.667809,-0.13758 1.264708,-0.12417 1.924756,0.0434 0.470958,0.12453 0.847725,0.32879 1.202972,0.66251 0.225072,0.20849 0.385233,0.41628 0.525992,0.68827 0.167569,0.32032 0.236008,0.63253 0.2159,0.99342 h -2.090209 c -0.04551,-0.27834 -0.178505,-0.50411 -0.404283,-0.67592 -0.291395,-0.22295 -0.667808,-0.24059 -0.981428,-0.0459 -0.214489,0.1337 -0.354189,0.31221 -0.428272,0.5528 -0.180975,0.57186 -0.189089,1.10067 -0.02752,1.67817 0.06738,0.24306 0.183798,0.43391 0.366536,0.60431 0.206023,0.20108 0.468842,0.28363 0.753534,0.24024 0.175683,-0.0268 0.320322,-0.10407 0.441325,-0.23777 0.12453,-0.13653 0.196144,-0.2854 0.227894,-0.4692 0.02364,-0.13229 0.03387,-0.24059 0.04304,-0.37183 h 2.203803 c 0.0441,0.66534 -0.16757,1.24813 -0.625828,1.72932"
         style="fill:#231f20;fill-opacity:1;fill-rule:nonzero;stroke:none;stroke-width:0.35277778"
         id="path287"
         inkscape:connector-curvature="0" />
      <path
         inkscape:connector-curvature="0"
         id="path289"
         style="fill:#231f20;fill-opacity:1;fill-rule:nonzero;stroke:none;stroke-width:0.35277778"
         d="m 38.527886,142.8784 h 2.285647 v -1.6129 h -2.285647 z" />
      <path
         inkscape:connector-curvature="0"
         id="path291"
         style="fill:#231f20;fill-opacity:1;fill-rule:nonzero;stroke:none;stroke-width:0.35277778"
         d="m 38.527886,149.82213 h 2.285647 v -6.11082 h -2.285647 z" />
      <path
         d="m 33.79583,144.35778 c 0.299156,-0.26352 0.587022,-0.45156 0.946503,-0.61771 0.590903,-0.27341 1.181453,-0.31645 1.806927,-0.13406 0.669925,0.19473 1.154642,0.66781 1.362781,1.33279 0.102658,0.31786 0.14605,0.60467 0.14605,0.93839 v 3.94512 h -2.424289 v -3.54754 c 0,-0.11888 -0.01588,-0.21907 -0.05115,-0.33267 -0.06244,-0.2039 -0.19685,-0.35277 -0.391936,-0.43779 -0.430741,-0.18133 -0.921455,-0.019 -1.156758,0.38382 -0.09948,0.16757 -0.146756,0.33267 -0.146756,0.52846 v 3.40572 h -2.347736 v -6.11082 h 2.204861 l 0.05151,0.64629"
         style="fill:#231f20;fill-opacity:1;fill-rule:nonzero;stroke:none;stroke-width:0.35277778"
         id="path295"
         inkscape:connector-curvature="0" />
      <path
         d="m 6.7654332,144.35778 c 0.3023305,-0.26352 0.5870222,-0.45156 0.9489722,-0.61771 0.5894917,-0.27341 1.1818055,-0.31645 1.806575,-0.13406 0.6692196,0.19473 1.1525246,0.66781 1.3624276,1.33279 0.102306,0.31786 0.14605,0.60467 0.14605,0.93839 v 3.94512 H 8.6016415 v -3.54754 c 0,-0.11888 -0.014464,-0.21907 -0.049742,-0.33267 -0.061383,-0.2039 -0.1950861,-0.35277 -0.3954639,-0.43779 -0.4289777,-0.18133 -0.9165166,-0.019 -1.1542888,0.38382 -0.098072,0.16757 -0.1411111,0.33267 -0.1411111,0.52846 v 3.40572 H 4.5090666 v -6.11082 h 2.2038027 l 0.052564,0.64629"
         style="fill:#231f20;fill-opacity:1;fill-rule:nonzero;stroke:none;stroke-width:0.35277778"
         id="path299"
         inkscape:connector-curvature="0" />
      <path
         d="m 21.168009,147.57395 c 0.1778,0.0296 0.321028,0.0649 0.490008,0.12453 0.141464,0.0445 0.238478,0.15134 0.267759,0.29598 0.03316,0.15699 -0.01023,0.30551 -0.122414,0.42192 -0.116064,0.11466 -0.245534,0.18098 -0.405695,0.20814 -0.216252,0.0325 -0.406047,0.0152 -0.61348,-0.0596 -0.100189,-0.0349 -0.178506,-0.0797 -0.258234,-0.14569 -0.106538,-0.0907 -0.176741,-0.19368 -0.213783,-0.32456 -0.03528,-0.1083 -0.05009,-0.20814 -0.04727,-0.32456 h -2.238375 v 0.12983 c 0,0.20955 0.03246,0.38664 0.108303,0.58667 0.111478,0.29457 0.265641,0.52599 0.499533,0.7433 0.303389,0.28152 0.61595,0.46002 1.016706,0.5722 0.826205,0.23495 1.570919,0.28117 2.422525,0.15276 0.398991,-0.0624 0.726722,-0.16898 1.086202,-0.3556 0.159103,-0.0826 0.285045,-0.16616 0.421217,-0.28117 0.606425,-0.50553 0.831497,-1.28164 0.588786,-2.03341 -0.09243,-0.28398 -0.235656,-0.50271 -0.46355,-0.69497 -0.309033,-0.26776 -0.617714,-0.4378 -1.011061,-0.5528 -0.08467,-0.0243 -0.157692,-0.0473 -0.246239,-0.0677 -0.478719,-0.13652 -0.889705,-0.22295 -1.383242,-0.29457 -0.131586,-0.0219 -0.243769,-0.0434 -0.370769,-0.0716 -0.06103,-0.0148 -0.109714,-0.0339 -0.167569,-0.0568 -0.138289,-0.0621 -0.198262,-0.2233 -0.134762,-0.36089 0.0035,-0.0109 0.006,-0.0148 0.01023,-0.0233 0.07161,-0.13088 0.182386,-0.21625 0.327025,-0.25965 0.253647,-0.0741 0.492125,-0.066 0.740833,0.018 0.239889,0.0808 0.391584,0.30268 0.381353,0.55386 h 2.157236 c -0.0035,-0.26494 -0.04022,-0.48789 -0.13335,-0.73519 -0.09137,-0.25259 -0.230716,-0.44344 -0.438855,-0.61101 -0.184503,-0.14605 -0.359481,-0.24483 -0.576439,-0.32879 -0.213078,-0.0825 -0.400756,-0.13653 -0.626886,-0.17427 -0.533753,-0.0921 -0.995539,-0.11889 -1.534936,-0.0893 -0.309739,0.0176 -0.567267,0.0596 -0.874889,0.13124 -0.403931,0.0945 -0.732014,0.25153 -1.063273,0.50976 -0.278341,0.21872 -0.462138,0.47696 -0.577144,0.80963 -0.05398,0.15275 -0.07902,0.28786 -0.08925,0.44908 -0.01023,0.26741 0.03104,0.49601 0.127,0.74613 0.179211,0.44485 0.495653,0.76129 0.940859,0.94085 0.2286,0.0907 0.42545,0.14888 0.661811,0.19615 0.473427,0.0974 0.871008,0.17427 1.344083,0.25541"
         style="fill:#231f20;fill-opacity:1;fill-rule:nonzero;stroke:none;stroke-width:0.35277778"
         id="path303"
         inkscape:connector-curvature="0" />
      <path
         d="m -5.5840465,147.18603 h -1.5670389 v -2.00378 h 1.0188222 c 0.1947334,0 0.3570111,-0.005 0.5510389,-0.0162 0.2681111,-0.0148 0.4917722,-0.13511 0.6501695,-0.35136 0.085725,-0.11465 0.1337027,-0.2286 0.1534583,-0.37183 0.01658,-0.11889 0.017286,-0.22154 0.00811,-0.34078 -0.04445,-0.4445 -0.4138084,-0.77858 -0.8632472,-0.77858 h -1.5183556 v 6.49887 h -2.598561 v -8.55663 h 4.2460332 c 0.168275,0 0.3100917,0.004 0.4790722,0.0123 1.1257139,0.0621 2.0552833,0.68792 2.530475,1.70886 0.2487083,0.52987 0.3326694,1.04245 0.2677583,1.62489 -0.1347611,1.22908 -0.9930694,2.18475 -2.1992166,2.44969 -0.4021667,0.0878 -0.7482417,0.12453 -1.1585222,0.12453"
         style="fill:#231f20;fill-opacity:1;fill-rule:nonzero;stroke:none;stroke-width:0.35277778"
         id="path307"
         inkscape:connector-curvature="0" />
      <path
         d="m 28.502259,143.59246 c -0.245181,-0.0392 -0.45085,-0.0568 -0.694267,-0.0568 -0.24518,0 -0.449439,0.0176 -0.69215,0.0568 -0.701675,0.10971 -1.270705,0.38947 -1.782938,0.88265 -0.549628,0.52599 -0.845962,1.15076 -0.91687,1.90923 -0.04127,0.46391 -0.0035,0.86501 0.118886,1.3141 0.193322,0.69074 0.553156,1.22238 1.122186,1.65876 0.373239,0.28646 0.745067,0.45861 1.205442,0.55986 0.326319,0.0702 0.610658,0.10019 0.945444,0.10019 0.334434,0 0.618773,-0.03 0.945092,-0.10019 0.461081,-0.10125 0.832203,-0.2734 1.207911,-0.55986 l -1.314097,-1.43298 c -0.207433,0.46496 -0.752475,0.67204 -1.217436,0.46355 -0.210609,-0.096 -0.366184,-0.24977 -0.460375,-0.46355 -0.09031,-0.19579 -0.143934,-0.37571 -0.172861,-0.58667 -0.06562,-0.43004 -0.05574,-0.80469 0.0254,-1.23155 0.04269,-0.22048 0.118533,-0.4004 0.240947,-0.58949 0.268464,-0.41099 0.82303,-0.52881 1.234369,-0.25964 0.105128,0.073 0.186973,0.15134 0.256823,0.25964 0.125588,0.18909 0.197555,0.36901 0.242005,0.58949 0.08043,0.42686 0.08925,0.80151 0.02681,1.23155 -0.03493,0.21096 -0.08573,0.39088 -0.175683,0.58667 l 1.314097,1.43298 c 0.569736,-0.43638 0.92957,-0.96802 1.120422,-1.65876 0.124178,-0.44909 0.160867,-0.85019 0.118181,-1.3141 -0.06773,-0.75847 -0.367242,-1.38324 -0.91687,-1.90923 -0.512233,-0.49318 -1.080911,-0.77294 -1.780469,-0.88265"
         style="fill:#231f20;fill-opacity:1;fill-rule:nonzero;stroke:none;stroke-width:0.35277778"
         id="path311"
         inkscape:connector-curvature="0" />
      <path
         d="m 17.779226,149.34094 c -0.03457,-0.50271 -0.05327,-0.92992 -0.06279,-1.43581 -0.01446,-0.66498 -0.02152,-1.22343 -0.02822,-1.887 -0.0018,-0.35984 -0.04022,-0.66111 -0.131233,-1.00718 -0.116417,-0.45579 -0.384175,-0.80187 -0.795161,-1.02906 -0.245181,-0.13934 -0.470253,-0.22295 -0.748242,-0.28257 -0.882297,-0.18909 -1.660877,-0.20532 -2.54635,-0.0501 -0.249414,0.042 -0.458258,0.10443 -0.693561,0.19897 -0.540103,0.22296 -0.913341,0.63112 -1.084439,1.18957 -0.06703,0.21519 -0.08784,0.40957 -0.06103,0.63006 0.0049,0.0406 0.01729,0.0769 0.03351,0.11359 l 2.056341,0.0487 c -0.0056,-0.12842 0.012,-0.23919 0.05645,-0.36231 0.06632,-0.18944 0.199672,-0.32349 0.388761,-0.39087 0.274461,-0.0988 0.542219,-0.10549 0.820208,-0.0134 0.181681,0.0593 0.31362,0.19332 0.373592,0.37853 0.03387,0.11642 0.01729,0.23001 -0.05468,0.32561 -0.05927,0.0896 -0.135114,0.14888 -0.233186,0.18521 -0.06209,0.0219 -0.114653,0.042 -0.1778,0.0568 -0.286103,0.0787 -0.530578,0.13123 -0.821972,0.17992 -0.231069,0.0381 -0.425097,0.0744 -0.655108,0.11888 -0.310798,0.0624 -0.571148,0.12982 -0.870303,0.22719 -0.278695,0.0892 -0.497064,0.2152 -0.709436,0.41381 -0.276931,0.254 -0.434622,0.55421 -0.490009,0.92604 -0.03316,0.25012 -0.02505,0.46778 0.02858,0.71402 0.144287,0.63924 0.588434,1.10702 1.214614,1.28941 0.696031,0.2032 1.349728,0.17074 2.019653,-0.10125 0.329495,-0.13406 0.578203,-0.31327 0.802569,-0.58667 l -0.144638,-1.04916 c -0.105481,0.15804 -0.233186,0.26917 -0.4064,0.34748 -0.163336,0.0716 -0.310092,0.10937 -0.488598,0.12559 -0.14605,0.0162 -0.276577,0.007 -0.419805,-0.0335 -0.117122,-0.0328 -0.206728,-0.0854 -0.289278,-0.17604 -0.06914,-0.0755 -0.113242,-0.15381 -0.131939,-0.254 -0.03175,-0.15698 0.01623,-0.30409 0.136525,-0.40569 0.08114,-0.0702 0.160867,-0.11606 0.259645,-0.14993 0.239183,-0.0907 0.44203,-0.15558 0.684741,-0.22331 0.296686,-0.0878 0.541514,-0.17568 0.821267,-0.30551 0.02928,0.22578 0.02716,0.41805 -0.006,0.63959 -0.02081,0.16369 -0.06844,0.29633 -0.160161,0.43533 l 0.144638,1.04916 c 0.04445,0.15134 0.08431,0.27552 0.136525,0.42192 0.02963,0.0836 0.06809,0.14323 0.125589,0.2092 h 2.263423 c -0.0956,-0.14993 -0.144639,-0.30268 -0.156281,-0.48119"
         style="fill:#231f20;fill-opacity:1;fill-rule:nonzero;stroke:none;stroke-width:0.35277778"
         id="path315"
         inkscape:connector-curvature="0" />
      <path
         d="m 4.0589575,149.34094 c -0.035278,-0.50271 -0.053622,-0.92992 -0.065617,-1.43581 -0.00953,-0.66498 -0.019756,-1.22343 -0.025047,-1.887 -0.00282,-0.35984 -0.039864,-0.66111 -0.1305278,-1.00718 -0.1167694,-0.45579 -0.3852333,-0.80187 -0.7916333,-1.02906 -0.2494139,-0.13934 -0.4787194,-0.22295 -0.7542388,-0.28257 -0.879475,-0.18909 -1.65876112,-0.20532 -2.54599722,-0.0501 -0.25011943,0.042 -0.45684721,0.10443 -0.69073887,0.19897 -0.54151391,0.22296 -0.91369441,0.63112 -1.08831941,1.18957 -0.066675,0.21519 -0.083608,0.40957 -0.059267,0.63006 0.00529,0.0406 0.014464,0.0769 0.034219,0.11359 l 2.05634159,0.0487 c -0.00529167,-0.12842 0.01340555,-0.23919 0.05538611,-0.36231 0.06914444,-0.18944 0.19861388,-0.32349 0.38699721,-0.39087 0.27834166,-0.0988 0.54186666,-0.10549 0.82232499,-0.0134 0.1830917,0.0593 0.3136194,0.19332 0.3725333,0.37853 0.033867,0.11642 0.018344,0.23001 -0.0508,0.32561 -0.0635,0.0896 -0.1386416,0.14888 -0.2360083,0.18521 -0.061031,0.0219 -0.1139472,0.042 -0.1760361,0.0568 -0.2875139,0.0787 -0.530225,0.13123 -0.822325,0.17992 -0.23071666,0.0381 -0.42650832,0.0744 -0.6568722,0.11888 -0.31009166,0.0624 -0.57185277,0.12982 -0.8727722,0.22719 -0.2758722,0.0892 -0.4928306,0.2152 -0.7055555,0.41381 -0.2786945,0.254 -0.4360334,0.55421 -0.4900084,0.92604 -0.035278,0.25012 -0.027164,0.46778 0.029633,0.71402 0.1425222,0.63924 0.5845527,1.10702 1.2139083,1.28941 0.69497218,0.2032 1.34796383,0.17074 2.02000548,-0.10125 0.32843612,-0.13406 0.57785002,-0.31327 0.80080552,-0.58667 l -0.1439333,-1.04916 c -0.1033639,0.15804 -0.2331861,0.26917 -0.4074583,0.34748 -0.16298337,0.0716 -0.30903336,0.10937 -0.48753891,0.12559 -0.14675556,0.0162 -0.27551944,0.007 -0.41909999,-0.0335 -0.11606389,-0.0328 -0.20672778,-0.0854 -0.28927778,-0.17604 -0.07090833,-0.0755 -0.11288888,-0.15381 -0.13511388,-0.254 -0.0310445,-0.15698 0.0208139,-0.30409 0.14040555,-0.40569 0.07972778,-0.0702 0.15839722,-0.11606 0.25788055,-0.14993 0.23777222,-0.0907 0.44344166,-0.15558 0.68615276,-0.22331 0.2963333,-0.0878 0.5404555,-0.17568 0.8205611,-0.30551 0.026811,0.22578 0.0254,0.41805 -0.00494,0.63959 -0.02293,0.16369 -0.071614,0.29633 -0.1615722,0.43533 l 0.1439333,1.04916 c 0.046214,0.15134 0.086078,0.27552 0.1379361,0.42192 0.029986,0.0836 0.064911,0.14323 0.1245306,0.2092 h 2.2658916 c -0.094544,-0.14993 -0.1453444,-0.30268 -0.15875,-0.48119"
         style="fill:#231f20;fill-opacity:1;fill-rule:nonzero;stroke:none;stroke-width:0.35277778"
         id="path319"
         inkscape:connector-curvature="0" />
      <path
         d="m -19.753189,145.32428 h 0.563739 v 1.85914 h 0.01341 c 0.172509,-0.28011 0.47872,-0.49213 1.010356,-0.49213 0.887942,0 1.320447,0.72743 1.320447,1.54658 0,0.83961 -0.389466,1.65453 -1.312686,1.65453 -0.5461,0 -0.892175,-0.27693 -1.043869,-0.50306 h -0.012 v 0.4318 h -0.539397 z m 1.469672,1.82245 c -0.612069,0 -0.905933,0.58279 -0.905933,1.15217 0,0.50941 0.264936,1.13665 0.898878,1.13665 0.605719,0 0.858661,-0.67592 0.845608,-1.1557 0.01305,-0.55033 -0.228247,-1.13312 -0.838553,-1.13312"
         style="fill:#231f20;fill-opacity:1;fill-rule:nonzero;stroke:none;stroke-width:0.35277778"
         id="path323"
         inkscape:connector-curvature="0" />
      <path
         d="m -16.318615,150.64696 c 0.07303,0.0243 0.166864,0.0501 0.263172,0.0501 0.50412,0 0.671689,-0.69744 0.671689,-0.75706 0,-0.0649 -0.07161,-0.22189 -0.108303,-0.32455 l -1.036108,-2.85115 h 0.61595 l 0.821619,2.528 h 0.01235 l 0.840669,-2.528 h 0.567267 l -1.126067,3.12314 c -0.208844,0.58667 -0.432505,1.264 -1.17475,1.264 -0.180622,0 -0.280458,-0.0258 -0.384175,-0.042 l 0.03669,-0.46249"
         style="fill:#231f20;fill-opacity:1;fill-rule:nonzero;stroke:none;stroke-width:0.35277778"
         id="path327"
         inkscape:connector-curvature="0" />
    </g>
  </g>
</svg>
