<?xml version="1.0" encoding="UTF-8"?>
<svg xmlns="http://www.w3.org/2000/svg" xmlns:xlink="http://www.w3.org/1999/xlink" width="950pt" height="356.23pt" viewBox="0 0 950 356.23" version="1.1">
<g id="surface1">
<path style=" stroke:none;fill-rule:evenodd;fill:rgb(18%,8%,8%);fill-opacity:1;" d="M 113.222656 101.808594 L 133.542969 101.808594 L 133.542969 166.558594 C 150.082031 134.351563 203.65625 143.054688 203.65625 185.964844 L 203.65625 252.960938 L 183.789063 252.960938 L 183.789063 188.085938 C 180.855469 149.734375 132.953125 158.425781 132.953125 191.457031 L 132.953125 253.636719 L 113.40625 253.636719 "/>
<path style=" stroke:none;fill-rule:evenodd;fill:rgb(18%,8%,8%);fill-opacity:1;" d="M 217.441406 252.269531 L 237.175781 252.269531 L 237.175781 149.617188 L 217.441406 149.617188 Z M 217.441406 252.269531 "/>
<path style=" stroke:none;fill-rule:evenodd;fill:rgb(18%,8%,8%);fill-opacity:1;" d="M 271.441406 148.925781 L 271.441406 166.558594 C 288 134.351563 341.5625 143.054688 341.5625 185.964844 L 341.5625 252.960938 L 321.691406 252.960938 L 321.691406 188.085938 C 318.734375 149.734375 270.839844 158.425781 270.839844 191.457031 L 270.839844 253.636719 L 251.3125 253.636719 L 251.175781 148.925781 "/>
<path style=" stroke:none;fill-rule:evenodd;fill:rgb(18%,8%,8%);fill-opacity:1;" d="M 399.757813 161.78125 C 413.234375 161.78125 424.691406 172.59375 428.929688 187.660156 L 428.929688 213.207031 C 424.691406 228.257813 413.234375 239.066406 399.757813 239.066406 C 382.71875 239.066406 368.882813 221.769531 368.882813 200.433594 C 368.882813 179.082031 382.71875 161.78125 399.757813 161.78125 M 394.652344 147.425781 C 408.3125 147.425781 420.382813 154.484375 428.601563 165.234375 L 428.601563 101.136719 L 448.332031 101.136719 L 448.332031 252.269531 L 428.601563 252.269531 L 428.601563 237.265625 C 420.234375 248.199219 408.109375 255.085938 394.652344 255.085938 C 369.386719 255.085938 348.941406 230.988281 348.941406 201.242188 C 348.941406 171.53125 369.386719 147.425781 394.652344 147.425781 "/>
<path style=" stroke:none;fill-rule:evenodd;fill:rgb(18%,8%,8%);fill-opacity:1;" d="M 451.578125 149.453125 L 482.914063 252.613281 L 502.050781 252.613281 L 527.980469 170.015625 L 554.140625 252.816406 L 571.453125 252.816406 L 604.785156 150.066406 L 585.226563 150.066406 L 562.371094 234.273438 L 537.265625 149 L 520.351563 149 L 492.984375 234.070313 L 472.589844 149.453125 C 472.589844 149.453125 451.402344 149.238281 451.578125 149.453125 "/>
<path style=" stroke:none;fill-rule:evenodd;fill:rgb(18%,8%,8%);fill-opacity:1;" d="M 716.527344 148.925781 L 716.527344 166.558594 C 723.289063 153.433594 735.398438 144.910156 749.117188 147.101563 L 746.855469 164.46875 C 735.0625 163.324219 718.957031 172.234375 715.957031 191.457031 L 715.957031 253.636719 L 696.414063 253.636719 L 696.289063 148.925781 "/>
<path style=" stroke:none;fill-rule:evenodd;fill:rgb(18%,8%,8%);fill-opacity:1;" d="M 611.683594 169.828125 L 618.5 150.375 C 653.308594 144.058594 680.007813 147.984375 682.042969 183.292969 L 682.042969 252.703125 L 662.550781 252.703125 L 662.550781 204.742188 L 641.121094 204.742188 C 603.261719 207.117188 621.4375 255.492188 656.296875 232.015625 L 649.878906 249.972656 C 596.839844 267.058594 578.789063 198.847656 631.011719 192.414063 C 639.886719 191.308594 654.136719 191.652344 663.527344 191.652344 C 667.632813 161.3125 640.347656 154.027344 611.683594 169.828125 "/>
<path style=" stroke:none;fill-rule:evenodd;fill:rgb(18%,8%,8%);fill-opacity:1;" d="M 762.492188 190.632813 L 817.542969 190.632813 C 817.4375 148.722656 767.9375 151.722656 762.492188 190.632813 M 726.484375 204.308594 L 743.246094 204.308594 C 745.84375 245.65625 774.214844 261.007813 831.246094 247.445313 L 826.609375 232.613281 C 783.574219 243.054688 762.214844 233.613281 762.308594 204.496094 L 836.621094 204.496094 C 841.035156 126.253906 751.992188 132.074219 744.992188 190.824219 L 730.925781 190.824219 C 730.925781 190.824219 726.679688 204.714844 726.484375 204.308594 "/>
</g>
</svg>
